<svg width="845" height="809" viewBox="0 0 845 809" fill="none" xmlns="http://www.w3.org/2000/svg">
<path d="M406 0H438L468 2L496 5L525 10L550 16L581 25L608 35L635 47L660 60L680 72L695 82L707 91L723 104L734 114L742 121L762 141L771 152L785 170L798 190L808 207L816 223L826 246L835 274L841 301L844 324L845 342V362L843 387L839 411L832 438L823 463L811 489L799 511L785 532L775 545L766 556L757 566L746 578L730 594L719 603L710 612L699 621L687 632L665 650L652 661L638 672L624 684L613 693L600 704L589 713L576 724L566 732L553 743L543 751L532 760L519 771L505 783L494 793L480 804L471 808L468 809H453L443 805L435 799L428 788L425 779L424 719L421 712L416 707L408 703L395 701L361 699L331 695L305 690L275 682L243 671L213 658L188 645L165 631L145 617L131 606L117 594L109 587L84 562L75 551L68 543L54 524L37 496L24 470L15 446L7 419L2 392L0 371V329L3 303L8 278L17 249L27 225L37 205L49 185L60 169L74 151L83 141L90 133L111 112L119 105L136 91L153 79L172 67L193 55L208 47L240 33L268 23L294 15L327 8L354 4L385 1L406 0Z" fill="#E3F31B"/>
<path d="M455 196H584L604 199L624 205L645 215L660 225L673 236L686 249L697 264L707 281L715 301L720 321L722 336V362L719 382L713 403L702 426L690 443L678 456L670 464L654 476L636 486L621 492L601 497L588 499H472L455 496L435 490L419 482L405 473L392 462L382 452L372 439L363 424L355 407L349 388L346 373L345 364V337L348 318L353 303L359 292L363 289L372 290L384 296L394 305L400 312L406 324L407 328L408 364L411 379L417 394L425 406L434 416L444 424L459 432L472 436L490 438H564L584 437L601 433L618 425L630 416L640 406L650 391L656 377L659 364L660 357V340L657 324L651 308L643 295L632 283L623 275L610 267L594 261L585 259L576 258L502 257L485 232L474 219L454 199L455 196Z" fill="black"/>
<path d="M262 196H371L388 199L409 206L428 216L439 224L449 233L461 245L473 262L483 280L490 298L495 318L497 337V350L495 369L491 385L483 401L479 404H472L460 399L450 391L442 382L437 372L435 361V336L433 321L429 309L423 297L413 284L402 274L387 265L372 260L358 258H269L250 261L234 267L224 273L214 281L203 292L194 306L188 320L185 332L184 339V358L187 373L193 389L202 403L211 413L220 421L233 429L249 435L259 437L272 438L339 439L346 448L358 465L370 479L382 491L388 496V499L386 500L255 499L233 495L217 490L199 482L185 473L175 465L165 456L155 445L144 429L134 410L128 393L124 377L122 361V335L125 315L131 294L142 271L150 259L161 245L173 233L189 221L204 212L223 204L241 199L262 196Z" fill="black"/>
</svg>
